<svg width="176" height="61" viewBox="0 0 176 61" fill="none" xmlns="http://www.w3.org/2000/svg">
<path d="M175.294 52.5139C175.294 57.0446 171.848 60.7239 167.594 60.7239H8.68612C4.43145 60.7239 0.976318 57.0446 0.976318 52.5139V8.21004C0.976318 3.67932 4.43145 0 8.68612 0H167.594C171.848 0 175.294 3.67932 175.294 8.21004V52.5139Z" fill="#F40074"/>
<path d="M46.4357 40.1342C45.5124 42.3134 45.0746 43.2865 43.8848 45.2123C42.2286 47.8983 39.8871 51.2431 36.9935 51.2735C34.4236 51.3039 33.7573 49.4896 30.2641 49.5099C26.7709 49.5302 26.0475 51.3039 23.4681 51.2837C20.5745 51.2533 18.3567 48.2328 16.7005 45.5468C12.0651 38.0361 11.5797 29.2077 14.4352 24.5249C16.4721 21.1902 19.6703 19.2441 22.6876 19.2441C25.7524 19.2441 27.6847 21.0382 30.226 21.0382C32.6913 21.0382 34.1856 19.2441 37.736 19.2441C40.4201 19.2441 43.2566 20.7949 45.284 23.4911C38.6497 27.3427 39.7348 37.4381 46.4357 40.1342Z" fill="white"/>
<path d="M35.0518 16.2403C36.3368 14.4766 37.3172 11.9933 36.965 9.44922C34.8615 9.60126 32.3963 11.0304 30.959 12.8853C29.655 14.578 28.5794 17.0816 28.9982 19.5142C31.2921 19.5852 33.6622 18.1256 35.0518 16.2403Z" fill="white"/>
<path d="M60.5606 24.4004L53.9169 45.2195H56.9627L58.9425 38.8237H65.3769L67.4138 45.2195H70.5358L63.8635 24.4004H60.5606ZM62.1312 27.8263C62.3596 28.7588 62.5975 29.7217 62.9117 30.7657L64.7011 36.2898H59.6088L61.3697 30.7353C61.6362 29.8231 61.8932 28.85 62.1312 27.8263Z" fill="white"/>
<path d="M79.1308 29.8008C77.1129 29.8008 75.5043 30.6319 74.4287 32.203L74.3145 30.1353H71.6018L71.6208 30.3988C71.697 31.686 71.7351 33.105 71.7351 35.1423V51.1873H74.6952V43.6969C75.609 44.8626 77.0748 45.5518 78.7405 45.5518C80.4728 45.5518 82.0624 44.8322 83.2236 43.5246C84.5181 42.0651 85.2034 39.967 85.2034 37.4634C85.2034 35.2538 84.6133 33.3382 83.4806 31.9293C82.367 30.561 80.825 29.8008 79.1308 29.8008ZM78.3883 32.4158C81.0249 32.4158 82.2051 35.0207 82.2051 37.5952C82.2051 40.9197 80.7013 42.9874 78.2741 42.9874C76.6179 42.9874 75.1902 41.7914 74.7904 40.0683C74.7238 39.8048 74.6857 39.4501 74.6857 39.0446V36.5107C74.6857 36.2775 74.7333 36.0039 74.7809 35.7302C74.7999 35.639 74.8095 35.5579 74.819 35.4768C75.2663 33.6727 76.7322 32.4158 78.3883 32.4158Z" fill="white"/>
<path d="M94.36 29.8008C92.3421 29.8008 90.7335 30.6319 89.658 32.203L89.5438 30.1353H86.8311L86.8501 30.3988C86.9262 31.686 86.9643 33.105 86.9643 35.1423V51.1873H89.9245V43.6969C90.8382 44.8626 92.3041 45.5518 93.9698 45.5518C95.7021 45.5518 97.2916 44.8322 98.4529 43.5246C99.7473 42.0651 100.433 39.967 100.433 37.4634C100.433 35.2538 99.8425 33.3382 98.7098 31.9293C97.6057 30.561 96.0543 29.8008 94.36 29.8008ZM93.6176 32.4158C96.2541 32.4158 97.4344 35.0207 97.4344 37.5952C97.4344 40.9197 95.9305 42.9874 93.5034 42.9874C91.8472 42.9874 90.4194 41.7914 90.0197 40.0683C89.9531 39.8048 89.915 39.4501 89.915 39.0446V36.5107C89.915 36.2775 89.9626 36.0039 90.0102 35.7302C90.0292 35.6491 90.0387 35.5579 90.0482 35.4768C90.4956 33.6727 91.9614 32.4158 93.6176 32.4158Z" fill="white"/>
<path d="M113.435 33.2229C110.674 32.0877 109.789 31.1856 109.789 29.5335C109.789 28.1449 110.827 26.736 113.149 26.736C115.062 26.736 116.29 27.4455 116.623 27.6685L116.871 27.8307L117.708 25.2055L117.547 25.1042C117.052 24.79 115.643 24.0703 113.244 24.0703C109.475 24.0703 106.838 26.4421 106.838 29.8376C106.838 32.5743 108.485 34.4899 112.026 35.8583C114.539 36.8617 115.472 37.8854 115.472 39.6389C115.472 41.6255 114.034 42.852 111.712 42.852C110.198 42.852 108.647 42.3857 107.448 41.5647L107.191 41.3924L106.401 44.0784L106.543 44.1798C107.657 44.9703 109.761 45.5481 111.541 45.5481C116.623 45.5481 118.422 42.2438 118.422 39.4261C118.422 36.5069 116.975 34.7129 113.435 33.2229Z" fill="white"/>
<path d="M123.753 26.541L120.849 27.5141V30.1291H118.727V32.6428H120.849V40.3561C120.849 42.2211 121.183 43.5286 121.877 44.3496C122.534 45.12 123.553 45.5457 124.742 45.5457C125.856 45.5457 126.656 45.3125 127.027 45.1706L127.189 45.1098L127.046 42.586L126.76 42.6772C126.389 42.7989 125.999 42.8495 125.38 42.8495C124.238 42.8495 123.743 42.0792 123.743 40.2649V32.6428H127.312V30.1291H123.743V26.541H123.753Z" fill="white"/>
<path d="M134.641 29.8008C130.501 29.8008 127.617 33.0949 127.617 37.7979C127.617 42.3691 130.415 45.5517 134.423 45.5517H134.451C137.84 45.5517 141.476 43.0381 141.476 37.5242C141.476 35.2842 140.828 33.3584 139.591 31.9496C138.354 30.5508 136.64 29.8008 134.641 29.8008ZM134.556 32.2942C137.221 32.2942 138.43 35.0612 138.43 37.6256C138.43 40.7778 136.774 43.0786 134.499 43.0786H134.47C132.224 43.0786 130.596 40.8285 130.596 37.7168C130.606 35.0106 131.824 32.2942 134.556 32.2942Z" fill="white"/>
<path d="M150.537 29.9528L150.356 29.9021C150.099 29.8312 149.88 29.8008 149.623 29.8008C148.072 29.8008 146.692 30.7738 145.911 32.3347L145.825 30.1353H143.17L143.189 30.3988C143.265 31.6455 143.303 33.0442 143.303 34.9295L143.275 45.2173H146.235V37.1999C146.235 36.7641 146.263 36.3485 146.32 35.9836C146.653 34.0578 147.872 32.8111 149.433 32.8111C149.737 32.8111 149.975 32.8415 150.223 32.8618L150.537 32.8922V29.9528Z" fill="white"/>
<path d="M157.181 29.7617C153.24 29.7617 150.489 33.1166 150.489 37.9108C150.489 42.5326 153.221 45.5125 157.457 45.5125C159.684 45.5125 161.236 44.9956 162.14 44.5597L162.321 44.4786L161.75 42.1272L161.502 42.2285C160.693 42.5731 159.627 42.938 157.799 42.938C156.514 42.938 153.554 42.4819 153.373 38.3669L162.92 38.3973L162.958 38.1946C163.015 37.8702 163.044 37.4445 163.044 36.8769C163.054 33.6031 161.512 29.7617 157.181 29.7617ZM156.981 32.1639C157.885 32.1639 158.608 32.4578 159.151 33.0457C159.998 33.968 160.15 35.3262 160.169 35.9749H153.421C153.707 34.1606 154.773 32.1639 156.981 32.1639Z" fill="white"/>
<path d="M53.9169 10.1871C54.745 10.0655 55.7063 9.98438 56.7533 9.98438C58.657 9.98438 60.0181 10.3898 60.9128 11.2006C61.8456 12.0014 62.3786 13.1568 62.3786 14.7481C62.3786 16.3597 61.8456 17.6672 60.9033 18.5794C59.9229 19.5017 58.3429 19.9984 56.344 19.9984C55.3827 19.9984 54.6022 19.968 53.9169 19.8767V10.1871ZM55.2589 18.9139C55.5921 18.9747 56.087 18.9747 56.601 18.9747C59.4375 18.9848 60.9794 17.4543 60.9794 14.7988C60.9985 12.4473 59.6183 10.9979 56.8199 10.9979C56.1346 10.9979 55.6111 11.0587 55.2685 11.1297V18.9139H55.2589Z" fill="white"/>
<path d="M67.1377 20.069C65.1579 20.069 63.5969 18.6703 63.5969 16.4303C63.5969 14.0585 65.2246 12.6699 67.2615 12.6699C69.384 12.6699 70.8118 14.1497 70.8118 16.2985C70.8118 18.9338 68.9081 20.069 67.1568 20.069H67.1377ZM67.1853 19.1061C68.4703 19.1061 69.4316 17.9507 69.4316 16.3391C69.4316 15.143 68.8034 13.6328 67.2234 13.6328C65.6529 13.6328 64.9676 15.0316 64.9676 16.3796C64.9676 17.9304 65.8813 19.096 67.1758 19.096H67.1853V19.1061Z" fill="white"/>
<path d="M72.9345 12.8359L73.9244 16.414C74.1242 17.2046 74.3241 17.9446 74.4574 18.6845H74.505C74.6763 17.9648 74.9143 17.2046 75.1617 16.4343L76.3706 12.8359H77.5032L78.6454 16.3735C78.9214 17.2046 79.1308 17.9648 79.3022 18.6845H79.3498C79.4735 17.9648 79.6734 17.2249 79.9113 16.3937L80.9679 12.8461H82.2909L79.9113 19.9211H78.693L77.5603 16.5458C77.3033 15.745 77.0844 15.0355 76.9036 14.2043H76.875C76.6942 15.0558 76.4657 15.7957 76.1992 16.5559L75.0094 19.9211H73.7911L71.5638 12.8461H72.9345V12.8359Z" fill="white"/>
<path d="M83.633 14.7477C83.633 13.9977 83.614 13.4199 83.5759 12.8321H84.7657L84.8419 13.9875H84.8704C85.2321 13.3287 86.0887 12.6699 87.3071 12.6699C88.3255 12.6699 89.9151 13.2578 89.9151 15.6801V19.9066H88.573V15.8322C88.573 14.697 88.1256 13.724 86.8597 13.724C85.9936 13.724 85.3082 14.322 85.0608 15.0416C85.0037 15.2038 84.9656 15.4369 84.9656 15.6396V19.9066H83.6235V14.7477H83.633Z" fill="white"/>
<path d="M92.0946 9.52734H93.4367V19.9062H92.0946V9.52734Z" fill="white"/>
<path d="M98.6718 20.069C96.692 20.069 95.131 18.6703 95.131 16.4303C95.131 14.0585 96.7586 12.6699 98.7955 12.6699C100.918 12.6699 102.346 14.1497 102.346 16.2985C102.346 18.9338 100.442 20.069 98.6813 20.069H98.6718ZM98.7099 19.1061C99.9948 19.1061 100.956 17.9507 100.956 16.3391C100.956 15.143 100.328 13.6328 98.7479 13.6328C97.1774 13.6328 96.4921 15.0316 96.4921 16.3796C96.4921 17.9304 97.4059 19.096 98.7003 19.096H98.7099V19.1061Z" fill="white"/>
<path d="M109.237 18.2137C109.237 18.8319 109.266 19.4299 109.342 19.9063H108.133L108.009 19.0144H107.962C107.562 19.5718 106.753 20.0684 105.706 20.0684C104.212 20.0684 103.45 19.065 103.45 18.0414C103.45 16.3285 105.04 15.396 107.886 15.4061V15.2642C107.886 14.6764 107.714 13.6122 106.21 13.6324C105.506 13.6324 104.792 13.825 104.278 14.1595L103.974 13.298C104.583 12.9331 105.487 12.6797 106.41 12.6797C108.685 12.6797 109.228 14.1595 109.228 15.5784V18.2137H109.237ZM107.924 16.2981C106.458 16.2676 104.792 16.521 104.792 17.8893C104.792 18.7407 105.373 19.1157 106.039 19.1157C107.019 19.1157 107.638 18.5279 107.857 17.9299C107.905 17.7981 107.914 17.6562 107.914 17.5244V16.2981H107.924Z" fill="white"/>
<path d="M117.766 9.52734V18.082C117.766 18.7104 117.785 19.43 117.823 19.9064H116.614L116.557 18.68H116.528C116.119 19.4706 115.234 20.0686 114.025 20.0686C112.235 20.0686 110.855 18.6192 110.855 16.4704C110.836 14.0986 112.378 12.6694 114.168 12.6694C115.31 12.6694 116.071 13.1864 116.395 13.7337H116.423V9.52734H117.766ZM116.423 15.7102C116.423 15.5379 116.404 15.325 116.366 15.1527C116.166 14.352 115.434 13.6729 114.434 13.6729C113.044 13.6729 112.226 14.8385 112.226 16.3893C112.226 17.8387 112.978 19.0246 114.406 19.0246C115.31 19.0246 116.128 18.4367 116.376 17.4941C116.423 17.3218 116.433 17.1393 116.433 16.9366V15.7102H116.423Z" fill="white"/>
<path d="M126.227 20.069C124.247 20.069 122.686 18.6703 122.686 16.4303C122.686 14.0585 124.324 12.6699 126.351 12.6699C128.474 12.6699 129.901 14.1497 129.901 16.2985C129.901 18.9338 127.998 20.069 126.246 20.069H126.227ZM126.275 19.1061C127.56 19.1061 128.521 17.9507 128.521 16.3391C128.521 15.143 127.893 13.6328 126.313 13.6328C124.742 13.6328 124.057 15.0316 124.057 16.3796C124.057 17.9304 124.971 19.096 126.265 19.096H126.275V19.1061Z" fill="white"/>
<path d="M131.605 14.7477C131.605 13.9977 131.586 13.4199 131.548 12.8321H132.738L132.814 13.9875H132.842C133.204 13.3287 134.061 12.6699 135.279 12.6699C136.298 12.6699 137.887 13.2578 137.887 15.6801V19.9066H136.545V15.8322C136.545 14.697 136.107 13.724 134.841 13.724C133.975 13.724 133.29 14.322 133.042 15.0416C132.985 15.2038 132.947 15.4369 132.947 15.6396V19.9066H131.605V14.7477Z" fill="white"/>
<path d="M144.912 11.1426V12.8353H146.834V13.8184H144.912V17.6295C144.912 18.5012 145.169 19.0079 145.921 19.0079C146.282 19.0079 146.501 18.9775 146.701 18.9167L146.758 19.8999C146.501 19.9911 146.092 20.0722 145.568 20.0722C144.94 20.0722 144.436 19.8695 144.122 19.535C143.76 19.1397 143.608 18.5113 143.608 17.6802V13.8184H142.465V12.8353H143.608V11.5379L144.912 11.1426Z" fill="white"/>
<path d="M148.348 9.52734H149.69V13.9467H149.718C149.928 13.5818 150.27 13.2473 150.68 13.0446C151.079 12.8115 151.546 12.6797 152.05 12.6797C153.04 12.6797 154.63 13.2676 154.63 15.7104V19.9169H153.288V15.8523C153.288 14.6968 152.85 13.744 151.584 13.744C150.718 13.744 150.042 14.3319 149.785 15.0313C149.709 15.2036 149.69 15.3962 149.69 15.6496V19.9169H148.348V9.52734Z" fill="white"/>
<path d="M157.571 16.5933C157.6 18.3367 158.742 19.0462 160.084 19.0462C161.045 19.0462 161.635 18.884 162.13 18.6915L162.378 19.5936C161.902 19.7963 161.083 20.0497 159.903 20.0497C157.647 20.0497 156.276 18.6002 156.276 16.4818C156.276 14.333 157.6 12.6504 159.751 12.6504C162.159 12.6504 162.787 14.6776 162.787 15.9851C162.787 16.2487 162.768 16.4514 162.739 16.6034L157.571 16.5933ZM161.492 15.6709C161.512 14.8702 161.14 13.5829 159.646 13.5829C158.275 13.5829 157.695 14.779 157.59 15.6709H161.492Z" fill="white"/>
</svg>
