<svg width="184" height="69" viewBox="0 0 184 69" fill="none" xmlns="http://www.w3.org/2000/svg">
<g filter="url(#filter0_d_216_8414)">
<path d="M179.024 52.6864C179.024 57.2374 175.559 60.9168 171.295 60.9168H11.8545C7.58074 60.9168 4.12561 57.2273 4.12561 52.6864V8.23036C4.12561 3.67934 7.59026 0 11.8545 0H171.295C175.569 0 179.024 3.68947 179.024 8.23036V52.6864Z" fill="#F40074"/>
<path d="M17.2418 11.7324V32.3587V52.9851L36.7829 32.3587L17.2418 11.7324Z" fill="url(#paint0_linear_216_8414)"/>
<path d="M42.0274 26.8204L34.1463 21.9653L17.2418 11.5762V11.7282L36.7828 32.3545L42.0274 26.8204Z" fill="url(#paint1_linear_216_8414)"/>
<path d="M17.2418 52.9839V53.1359L34.1463 42.7467L42.0274 37.9017L36.7828 32.3574L17.2418 52.9839Z" fill="url(#paint2_linear_216_8414)"/>
<path d="M42.0274 26.8223L36.7828 32.3564L42.0274 37.9007L51.0412 32.3564L42.0274 26.8223Z" fill="url(#paint3_linear_216_8414)"/>
<path d="M140.237 40.4168C139.504 40.4168 138.838 40.2749 138.229 39.9809C137.619 39.6971 137.115 39.2511 136.706 38.6531H136.582C136.668 39.3525 136.706 40.0215 136.706 40.6499V45.586H135.002V28.2031H136.392L136.63 29.8451H136.715C137.153 29.1863 137.667 28.7099 138.248 28.4261C138.828 28.1321 139.495 27.9902 140.256 27.9902C141.75 27.9902 142.902 28.5376 143.711 29.6221C144.52 30.7066 144.929 32.2371 144.929 34.1934C144.929 36.1597 144.52 37.6902 143.692 38.7849C142.854 39.8694 141.703 40.4168 140.237 40.4168ZM139.99 29.5207C138.838 29.5207 138.01 29.8654 137.496 30.5343C136.982 31.2134 136.715 32.298 136.706 33.7778V34.1832C136.706 35.8658 136.972 37.0719 137.496 37.8017C138.019 38.5315 138.866 38.8862 140.037 38.8862C141.008 38.8862 141.769 38.4707 142.321 37.6294C142.874 36.7881 143.15 35.6327 143.15 34.163C143.15 32.6629 142.874 31.5175 142.321 30.7168C141.769 29.9262 140.989 29.5207 139.99 29.5207Z" fill="#F9F9F9"/>
<path d="M148.87 40.1926H147.166V23.1543H148.87V40.1926Z" fill="#F9F9F9"/>
<path d="M158.683 40.1935L158.341 38.4806H158.255C157.693 39.2306 157.132 39.7374 156.57 40.0111C156.009 40.2746 155.314 40.4064 154.476 40.4064C153.363 40.4064 152.487 40.1023 151.849 39.484C151.211 38.8759 150.897 38.0042 150.897 36.8689C150.897 34.4465 152.715 33.1795 156.351 33.0578L158.264 32.997V32.2571C158.264 31.3144 158.074 30.6151 157.693 30.1691C157.313 29.7231 156.703 29.5001 155.866 29.5001C154.924 29.5001 153.867 29.8042 152.677 30.4225L152.154 29.0339C152.706 28.7095 153.315 28.4561 153.981 28.2737C154.638 28.0912 155.304 28 155.971 28C157.313 28 158.312 28.3142 158.959 28.9528C159.607 29.5913 159.93 30.6049 159.93 32.0037V40.1935H158.683ZM154.828 38.9164C155.894 38.9164 156.723 38.6022 157.332 37.9839C157.941 37.3656 158.245 36.4939 158.245 35.379V34.2944L156.542 34.3755C155.181 34.4262 154.21 34.6492 153.61 35.0546C153.01 35.4499 152.715 36.0682 152.715 36.9095C152.715 37.5683 152.906 38.065 153.277 38.4096C153.629 38.7441 154.153 38.9164 154.828 38.9164Z" fill="#F9F9F9"/>
<path d="M160.93 28.1934H162.757L165.222 35.035C165.765 36.5959 166.098 37.721 166.231 38.4204H166.317C166.403 38.0453 166.593 37.4068 166.879 36.5047C167.164 35.6026 168.097 32.8355 169.667 28.1934H171.495L166.65 41.8564C166.174 43.2044 165.613 44.1673 164.965 44.7349C164.328 45.3026 163.538 45.5864 162.605 45.5864C162.081 45.5864 161.567 45.5255 161.063 45.4039V43.9444C161.444 44.0356 161.862 44.0761 162.329 44.0761C163.5 44.0761 164.337 43.3768 164.842 41.978L165.47 40.2752L160.93 28.1934Z" fill="#F9F9F9"/>
<path d="M108.627 29.3146C109.169 29.791 110.302 30.7944 110.302 32.7C110.302 34.5549 109.312 35.4367 108.322 36.2678C108.018 36.5922 107.665 36.9469 107.665 37.4943C107.665 38.0416 108.018 38.3457 108.275 38.5687L109.122 39.2681C110.159 40.2006 111.102 41.052 111.102 42.7853C111.102 45.1469 108.96 47.5289 104.905 47.5289C101.488 47.5289 99.8414 45.7956 99.8414 43.9407C99.8414 43.0386 100.26 41.7615 101.659 40.8797C103.116 39.9269 105.105 39.8053 106.162 39.7242C105.828 39.2681 105.457 38.7917 105.457 38.0214C105.457 37.5956 105.571 37.3422 105.695 37.0382C105.438 37.0686 105.172 37.0888 104.943 37.0888C102.449 37.0888 101.031 35.1022 101.031 33.146C101.031 31.9905 101.526 30.7133 102.535 29.7808C103.877 28.6051 105.486 28.4023 106.752 28.4023H111.606L110.102 29.3044H108.627V29.3146ZM106.952 40.4641C106.761 40.4337 106.647 40.4337 106.409 40.4337C106.2 40.4337 104.924 40.4844 103.934 40.8391C103.42 41.0419 101.907 41.6399 101.907 43.4238C101.907 45.2077 103.535 46.4849 106.057 46.4849C108.322 46.4849 109.522 45.3294 109.522 43.7684C109.522 42.4913 108.741 41.8223 106.952 40.4641ZM107.637 35.6901C108.179 35.1123 108.227 34.3116 108.227 33.8555C108.227 32.0513 107.218 29.2335 105.257 29.2335C104.648 29.2335 103.982 29.5578 103.611 30.0646C103.211 30.5917 103.087 31.2708 103.087 31.9195C103.087 33.6021 104.01 36.3895 106.038 36.3895C106.628 36.3996 107.256 36.0955 107.637 35.6901Z" fill="#F9F9F9"/>
<path d="M93.7877 40.0635C90.047 40.0635 88.0482 36.9518 88.0482 34.1542C88.0482 30.8702 90.561 28.0625 94.1399 28.0625C97.595 28.0625 99.7652 30.9411 99.7652 33.9718C99.7652 36.9315 97.6235 40.0635 93.7877 40.0635ZM96.7288 38.0363C97.2904 37.2356 97.4332 36.2321 97.4332 35.259C97.4332 33.0494 96.4433 28.843 93.5307 28.843C92.7502 28.843 91.9792 29.1673 91.4177 29.6944C90.5039 30.5661 90.3326 31.6709 90.3326 32.7555C90.3326 35.2388 91.4843 39.3134 94.3302 39.3134C95.2535 39.3134 96.1863 38.837 96.7288 38.0363Z" fill="#F9F9F9"/>
<path d="M81.0333 40.0635C77.2927 40.0635 75.2938 36.9518 75.2938 34.1542C75.2938 30.8702 77.8162 28.0625 81.3855 28.0625C84.8406 28.0625 87.0108 30.9411 87.0108 33.9718C87.0108 36.9315 84.8692 40.0635 81.0333 40.0635ZM83.9744 38.0363C84.536 37.2356 84.6788 36.2321 84.6788 35.259C84.6788 33.0494 83.6889 28.843 80.7763 28.843C80.0053 28.843 79.2249 29.1673 78.6633 29.6944C77.7495 30.5661 77.5782 31.6709 77.5782 32.7555C77.5782 35.2388 78.7299 39.3134 81.5759 39.3134C82.4991 39.3134 83.4414 38.837 83.9744 38.0363Z" fill="#F9F9F9"/>
<path d="M73.4947 39.6626L70.1157 40.4938C68.7451 40.7168 67.5173 40.9195 66.2133 40.9195C59.6837 40.9195 57.1995 35.8008 57.1995 31.7971C57.1995 26.9116 60.7212 22.3809 66.7558 22.3809C68.0312 22.3809 69.2591 22.5836 70.3727 22.9079C72.1431 23.435 72.9712 24.0938 73.4947 24.4689L71.534 26.4555L70.7059 26.6582L71.296 25.6548C70.4965 24.8236 69.0211 23.283 66.2323 23.283C62.4916 23.283 59.6837 26.3035 59.6837 30.7126C59.6837 35.4461 62.9009 39.9059 68.0598 39.9059C69.5732 39.9059 70.3537 39.5815 71.0676 39.2774V35.2231L67.4982 35.4258L69.3923 34.3413H74.4085L73.7898 34.9697C73.6185 35.1217 73.5994 35.1724 73.5518 35.3751C73.5233 35.5981 73.5042 36.338 73.5042 36.5813V39.6626H73.4947Z" fill="#F9F9F9"/>
<path d="M116.099 38.9453C115.318 38.8743 115.156 38.7223 115.156 37.7391V37.4655V23.4881C115.156 23.4374 115.166 23.3766 115.166 23.3259C115.261 22.4441 115.499 22.2921 116.232 21.8359H112.843L111.073 22.738H112.881V22.7482V22.738V37.4553V38.2865C112.881 38.7933 112.786 38.8642 112.244 39.6244H116.432L117.307 39.0669C116.908 39.0162 116.508 38.996 116.099 38.9453Z" fill="#F9F9F9"/>
<path d="M125.731 39.1811C125.474 39.3332 125.217 39.5055 124.96 39.6271C124.18 40.0021 123.39 40.1035 122.676 40.1035C121.924 40.1035 120.753 40.0528 119.554 39.1304C117.888 37.8837 117.155 35.7248 117.155 33.8497C117.155 29.9677 120.115 28.0723 122.533 28.0723C123.38 28.0723 124.246 28.2953 124.951 28.7716C126.121 29.5926 126.426 30.667 126.597 31.2448L121.077 33.6267L119.268 33.7787C119.858 36.9512 121.876 38.8061 124.103 38.8061C125.303 38.8061 126.169 38.3601 126.968 37.9344L125.731 39.1811ZM123.523 31.7212C123.97 31.5488 124.199 31.3968 124.199 31.0421C124.199 30.0386 123.142 28.8933 121.876 28.8933C120.934 28.8933 119.173 29.6737 119.173 32.3699C119.173 32.7956 119.221 33.2415 119.249 33.6976L123.523 31.7212Z" fill="#F9F9F9"/>
<path d="M127.996 28.2427V29.8957H127.806V28.2427H127.292V28.0703H128.51V28.2427H127.996Z" fill="#F9F9F9"/>
<path d="M130.109 29.8957V28.2326H130.1L129.624 29.8957H129.481L128.996 28.2326H128.986V29.8957H128.815V28.0703H129.11L129.548 29.5408H129.557L129.986 28.0703H130.281V29.8957H130.109Z" fill="#F9F9F9"/>
<path d="M61.9015 17.4964H60.7308C60.7308 17.3241 60.6166 16.8376 60.3976 16.0369H58.7034C58.4749 16.8275 58.3607 17.314 58.3607 17.4964H57.2375C57.2375 17.3951 57.5231 16.5639 58.0942 14.9929C58.6653 13.4218 58.9508 12.5602 58.9508 12.4082H60.3405C60.3405 12.5602 60.5975 13.4117 61.121 14.9624C61.635 16.5031 61.9015 17.3545 61.9015 17.4964ZM60.1977 15.2868C59.7789 13.9387 59.5695 13.2089 59.5695 13.1076H59.5124C59.5124 13.2089 59.2935 13.9387 58.8652 15.2868H60.1977Z" fill="#F9F9FA"/>
<path d="M66.6321 17.487H65.7279C65.7279 17.3755 65.3947 16.8181 64.7189 15.7943C64.0146 14.7199 63.6148 13.98 63.5101 13.5847H63.453C63.5101 14.1523 63.5482 14.6692 63.5482 15.1355C63.5482 15.7842 63.5672 16.5647 63.5958 17.487H62.6915C62.7296 16.6762 62.7486 15.7943 62.7486 14.8213C62.7486 13.8685 62.7296 13.0576 62.6915 12.3887H63.7861C63.7861 12.5306 64.0907 13.0779 64.6904 14.0408C65.3376 15.0646 65.7088 15.7639 65.804 16.1288H65.8611C65.804 15.5511 65.7755 15.024 65.7755 14.5679C65.7755 13.8584 65.7564 13.1387 65.7279 12.3887H66.6416C66.6036 13.0374 66.594 13.8482 66.594 14.8213C66.5845 15.8045 66.6036 16.6863 66.6321 17.487Z" fill="#F9F9FA"/>
<path d="M71.9623 14.7616C71.9623 15.5015 71.7434 16.1502 71.296 16.6976C70.8487 17.255 70.23 17.5287 69.4209 17.5287C69.0592 17.5287 68.5547 17.5084 67.9265 17.478C67.9551 16.6874 67.9741 15.8056 67.9741 14.8123C67.9741 13.8595 67.9551 13.0486 67.9265 12.3797H68.5738C68.6785 12.3797 68.8403 12.3796 69.0402 12.3695C69.2496 12.3594 69.3828 12.3594 69.4495 12.3594C70.3347 12.3594 70.9724 12.5925 71.3722 13.0588C71.7624 13.5453 71.9623 14.1028 71.9623 14.7616ZM70.9534 14.9339C70.9534 14.4372 70.8201 14.0115 70.5441 13.6669C70.268 13.3223 69.8492 13.15 69.2876 13.15C69.1829 13.15 69.0402 13.1601 68.8498 13.1804C68.8784 13.6973 68.8879 14.2447 68.8879 14.8123C68.8879 15.4407 68.8974 16.0489 68.9259 16.6672C69.0878 16.6976 69.2401 16.7178 69.4019 16.7178C69.9254 16.7178 70.3156 16.5455 70.5726 16.1908C70.8296 15.8563 70.9534 15.4306 70.9534 14.9339Z" fill="#F9F9FA"/>
<path d="M76.8644 17.4881H75.7793C75.4937 16.5658 75.2748 15.9982 75.1225 15.7752C74.9702 15.5623 74.7227 15.4508 74.3896 15.4508C74.2468 15.4508 74.1135 15.4508 73.9803 15.4508C73.9803 16.1198 73.9898 16.7989 74.0088 17.478H72.9904C73.0189 16.6874 73.038 15.8056 73.038 14.8123C73.038 13.8595 73.0189 13.0486 72.9904 12.3797H73.6281C73.7042 12.3797 73.8565 12.3796 74.085 12.3695C74.3229 12.3594 74.5323 12.3594 74.7322 12.3594C75.8554 12.3594 76.417 12.7648 76.417 13.5858C76.417 14.2345 76.0934 14.6906 75.4556 14.944V15.0048C75.7031 15.0758 75.922 15.2785 76.1029 15.6231C76.3028 15.9678 76.5503 16.586 76.8644 17.4881ZM75.4937 13.8899C75.4937 13.373 75.1796 13.1094 74.5514 13.1094C74.3229 13.1094 74.1135 13.1297 73.9422 13.1601C73.9708 13.5655 73.9803 14.0926 73.9803 14.7413C74.1135 14.7514 74.2278 14.7515 74.3229 14.7515C75.1035 14.7515 75.4937 14.4676 75.4937 13.8899Z" fill="#F9F9FA"/>
<path d="M82.1373 14.846C82.1373 15.6467 81.9088 16.3055 81.4424 16.8325C80.9856 17.3596 80.4145 17.6231 79.7387 17.6231C79.0915 17.6231 78.5489 17.3799 78.1111 16.8934C77.6733 16.4068 77.4543 15.7987 77.4543 15.0487C77.4543 14.2479 77.6828 13.5891 78.1492 13.0621C78.606 12.535 79.1771 12.2715 79.8529 12.2715C80.5001 12.2715 81.0427 12.5147 81.4805 12.9911C81.9183 13.4878 82.1373 14.0959 82.1373 14.846ZM81.1188 14.9574C81.1188 14.4101 80.9856 13.9743 80.7286 13.6297C80.4621 13.2952 80.148 13.1229 79.7577 13.1229C79.396 13.1229 79.101 13.2952 78.844 13.6398C78.5965 13.9844 78.4728 14.4101 78.4728 14.9372C78.4728 15.4845 78.606 15.9203 78.863 16.2649C79.1295 16.6096 79.4532 16.7717 79.8339 16.7717C80.1956 16.7717 80.4906 16.5994 80.7476 16.2548C80.9951 15.9102 81.1188 15.4845 81.1188 14.9574Z" fill="#F9F9FA"/>
<path d="M84.2124 17.487H83.1749C83.2035 16.6762 83.2225 15.7943 83.2225 14.8213C83.2225 13.8685 83.2035 13.0576 83.1749 12.3887H84.2124C84.1838 13.0475 84.1648 13.8584 84.1648 14.8213C84.1648 15.8045 84.1743 16.6863 84.2124 17.487Z" fill="#F9F9FA"/>
<path d="M89.5331 14.7616C89.5331 15.5015 89.3141 16.1502 88.8668 16.6976C88.4194 17.255 87.8007 17.5287 86.9917 17.5287C86.63 17.5287 86.1255 17.5084 85.4973 17.478C85.5259 16.6874 85.5449 15.8056 85.5449 14.8123C85.5449 13.8595 85.5259 13.0486 85.4973 12.3797H86.1446C86.2493 12.3797 86.4111 12.3796 86.611 12.3695C86.8204 12.3594 86.9536 12.3594 87.0202 12.3594C87.9054 12.3594 88.5432 12.5925 88.9429 13.0588C89.3332 13.5453 89.5331 14.1028 89.5331 14.7616ZM88.5336 14.9339C88.5336 14.4372 88.4004 14.0115 88.1244 13.6669C87.8483 13.3223 87.4295 13.15 86.8679 13.15C86.7632 13.15 86.6205 13.1601 86.4301 13.1804C86.4587 13.6973 86.4682 14.2447 86.4682 14.8123C86.4682 15.4407 86.4777 16.0489 86.5063 16.6672C86.6681 16.6976 86.8204 16.7178 86.9822 16.7178C87.5057 16.7178 87.8959 16.5455 88.1529 16.1908C88.4004 15.8563 88.5336 15.4306 88.5336 14.9339Z" fill="#F9F9FA"/>
<path d="M96.5956 17.4964H95.4249C95.4249 17.3241 95.3106 16.8376 95.0917 16.0369H93.3975C93.169 16.8275 93.0548 17.314 93.0548 17.4964H91.9507C91.9507 17.3951 92.2362 16.5639 92.8073 14.9929C93.3784 13.4218 93.664 12.5602 93.664 12.4082H95.0536C95.0536 12.5602 95.3106 13.4117 95.8341 14.9624C96.3386 16.5031 96.5956 17.3545 96.5956 17.4964ZM94.9014 15.2868C94.4826 13.9387 94.2731 13.2089 94.2731 13.1076H94.216C94.216 13.2089 93.9971 13.9387 93.5688 15.2868H94.9014Z" fill="#F9F9FA"/>
<path d="M100.879 13.7277C100.879 14.346 100.66 14.8123 100.222 15.1062C99.7843 15.4001 99.2512 15.5522 98.623 15.5522C98.5088 15.5522 98.4231 15.5522 98.3755 15.542C98.3755 16.0286 98.385 16.6773 98.4136 17.478H97.3856C97.4142 16.7279 97.4332 15.836 97.4332 14.8123C97.4332 13.8696 97.4142 13.0588 97.3856 12.3797H98.0234C98.1185 12.3797 98.2899 12.3796 98.5469 12.3695C98.8039 12.3594 99.0228 12.3594 99.2132 12.3594C99.6796 12.3594 100.07 12.4709 100.393 12.6939C100.717 12.927 100.879 13.2716 100.879 13.7277ZM99.9366 13.9406C99.9366 13.3831 99.5844 13.0993 98.8895 13.0993C98.7182 13.0993 98.5278 13.1196 98.3375 13.1601C98.366 13.6568 98.3755 14.2142 98.3755 14.8325C98.4326 14.8427 98.5088 14.8427 98.5849 14.8427C99.4892 14.8427 99.9366 14.5386 99.9366 13.9406Z" fill="#F9F9FA"/>
<path d="M105.286 13.7277C105.286 14.346 105.067 14.8123 104.639 15.1062C104.201 15.4001 103.668 15.5522 103.04 15.5522C102.925 15.5522 102.84 15.5522 102.792 15.542C102.792 16.0286 102.802 16.6773 102.83 17.478H101.802C101.831 16.7279 101.85 15.836 101.85 14.8123C101.85 13.8696 101.831 13.0588 101.802 12.3797H102.44C102.535 12.3797 102.706 12.3796 102.963 12.3695C103.22 12.3594 103.439 12.3594 103.63 12.3594C104.096 12.3594 104.486 12.4709 104.81 12.6939C105.124 12.927 105.286 13.2716 105.286 13.7277ZM104.344 13.9406C104.344 13.3831 103.991 13.0993 103.297 13.0993C103.125 13.0993 102.935 13.1196 102.744 13.1601C102.773 13.6568 102.783 14.2142 102.783 14.8325C102.84 14.8427 102.916 14.8427 102.992 14.8427C103.896 14.8427 104.344 14.5386 104.344 13.9406Z" fill="#F9F9FA"/>
<path d="M112.491 14.846C112.491 15.6467 112.263 16.3055 111.796 16.8325C111.339 17.3596 110.768 17.6231 110.093 17.6231C109.445 17.6231 108.903 17.3799 108.465 16.8934C108.027 16.4068 107.808 15.7987 107.808 15.0487C107.808 14.2479 108.037 13.5891 108.503 13.0621C108.96 12.535 109.531 12.2715 110.207 12.2715C110.854 12.2715 111.397 12.5147 111.834 12.9911C112.272 13.4878 112.491 14.0959 112.491 14.846ZM111.473 14.9574C111.473 14.4101 111.339 13.9743 111.082 13.6297C110.816 13.2952 110.502 13.1229 110.112 13.1229C109.75 13.1229 109.455 13.2952 109.198 13.6398C108.95 13.9844 108.827 14.4101 108.827 14.9372C108.827 15.4845 108.96 15.9203 109.226 16.2649C109.493 16.6096 109.816 16.7717 110.197 16.7717C110.559 16.7717 110.854 16.5994 111.111 16.2548C111.349 15.9102 111.473 15.4845 111.473 14.9574Z" fill="#F9F9FA"/>
<path d="M117.469 17.487H116.565C116.565 17.3755 116.232 16.8181 115.556 15.7943C114.852 14.7199 114.452 13.98 114.347 13.5847H114.29C114.347 14.1523 114.385 14.6692 114.385 15.1355C114.385 15.7842 114.404 16.5647 114.433 17.487H113.529C113.567 16.6762 113.586 15.7943 113.586 14.8213C113.586 13.8685 113.567 13.0576 113.529 12.3887H114.623C114.623 12.5306 114.928 13.0779 115.527 14.0408C116.175 15.0646 116.546 15.7639 116.641 16.1288H116.698C116.641 15.5511 116.613 15.024 116.613 14.5679C116.613 13.8584 116.593 13.1387 116.565 12.3887H117.479C117.441 13.0374 117.431 13.8482 117.431 14.8213C117.422 15.8045 117.431 16.6863 117.469 17.487Z" fill="#F9F9FA"/>
</g>
<defs>
<filter id="filter0_d_216_8414" x="0.12561" y="0" width="182.898" height="68.916" filterUnits="userSpaceOnUse" color-interpolation-filters="sRGB">
<feFlood flood-opacity="0" result="BackgroundImageFix"/>
<feColorMatrix in="SourceAlpha" type="matrix" values="0 0 0 0 0 0 0 0 0 0 0 0 0 0 0 0 0 0 127 0" result="hardAlpha"/>
<feOffset dy="4"/>
<feGaussianBlur stdDeviation="2"/>
<feComposite in2="hardAlpha" operator="out"/>
<feColorMatrix type="matrix" values="0 0 0 0 0 0 0 0 0 0 0 0 0 0 0 0 0 0 0.25 0"/>
<feBlend mode="normal" in2="BackgroundImageFix" result="effect1_dropShadow_216_8414"/>
<feBlend mode="normal" in="SourceGraphic" in2="effect1_dropShadow_216_8414" result="shape"/>
</filter>
<linearGradient id="paint0_linear_216_8414" x1="27.0124" y1="11.7319" x2="27.0124" y2="52.9885" gradientUnits="userSpaceOnUse">
<stop stop-color="#257CB0"/>
<stop offset="0.2863" stop-color="#4A93B5"/>
<stop offset="0.767" stop-color="#78BCBB"/>
<stop offset="1" stop-color="#89CFBD"/>
</linearGradient>
<linearGradient id="paint1_linear_216_8414" x1="17.2442" y1="21.967" x2="42.0281" y2="21.967" gradientUnits="userSpaceOnUse">
<stop stop-color="#52C1AD"/>
<stop offset="1" stop-color="#DEE89A"/>
</linearGradient>
<linearGradient id="paint2_linear_216_8414" x1="29.636" y1="32.3592" x2="29.636" y2="53.1374" gradientUnits="userSpaceOnUse">
<stop stop-color="#EC413D"/>
<stop offset="0.1668" stop-color="#DA4452"/>
<stop offset="0.5748" stop-color="#B0487A"/>
<stop offset="0.8619" stop-color="#954A92"/>
<stop offset="1" stop-color="#8A4A9D"/>
</linearGradient>
<linearGradient id="paint3_linear_216_8414" x1="43.9105" y1="26.8174" x2="43.9105" y2="37.8984" gradientUnits="userSpaceOnUse">
<stop stop-color="#F58879"/>
<stop offset="0.1194" stop-color="#F69079"/>
<stop offset="0.7128" stop-color="#FCB877"/>
<stop offset="1" stop-color="#FEC874"/>
</linearGradient>
</defs>
</svg>
